<svg width="114" height="26" viewBox="0 0 114 26" fill="none" xmlns="http://www.w3.org/2000/svg">
<g clip-path="url(#clip0_179_216)">
<path d="M33.1418 20.8956C31.9066 20.8956 30.4627 20.5275 29.5 19.9755L30.4221 17.5038C30.5061 17.4839 31.1962 17.4839 31.2803 17.5038L33.4579 18.6674C34.4002 18.5457 35.0497 17.7671 35.0497 16.5836V12.9879C35.0497 10.3322 34.9657 7.65382 34.8207 6.26367H38.1697C38.045 7.67364 37.9609 10.3718 37.9609 12.9653V15.8871C37.9609 17.685 37.3549 18.9732 36.0994 19.7688C35.0729 20.3832 33.3564 20.8928 33.1476 20.8928L33.1418 20.8956Z" fill="white"/>
<path d="M42.2029 20.672C42.3276 19.2621 42.4116 16.5639 42.4116 13.9705V12.9908C42.4116 10.3351 42.3276 7.65675 42.2029 6.2666H45.5722C45.4475 7.67657 45.3634 10.3748 45.3634 12.9682V13.9478C45.3634 16.6035 45.4475 19.2819 45.5722 20.672H42.2029Z" fill="white"/>
<path d="M54.9262 21.0004C51.7019 21.0004 49.7998 19.4262 49.7998 16.7903C49.7998 15.6266 49.8636 15.0944 49.8636 13.9704V12.9907C49.8636 10.335 49.7795 7.65665 49.6548 6.2665H53.0241C52.8994 7.67647 52.8153 10.3747 52.8153 12.9681V15.4822C52.8153 17.6482 53.6736 18.6278 55.5583 18.6278C56.7094 18.6278 57.8605 18.2201 59.0319 17.382V12.9879C59.0319 10.3322 58.9478 7.65382 58.8232 6.26367H62.1924C62.0678 7.67364 61.9837 10.3718 61.9837 12.9653V13.9449C61.9837 16.6006 62.0678 19.279 62.1924 20.6691H59.577C59.493 20.3633 59.3886 19.7688 59.2842 19.0751C58.3215 19.749 57.2545 20.403 56.4368 20.8333C56.0802 20.9352 55.5148 20.9975 54.9291 20.9975L54.9262 21.0004Z" fill="white"/>
<path d="M77.6557 20.895C76.5887 20.895 73.9733 20.6713 72.7584 20.6713H72.3408C72.4655 19.2613 72.5496 16.5631 72.5496 13.9697V12.9901C72.5496 10.3344 72.4655 7.656 72.3408 6.26585H72.7584C74.5155 6.26585 77.0497 6.01953 77.2788 6.01953C80.4799 6.01953 82.6371 7.44932 82.6371 9.67752C82.6371 11.0677 81.7789 12.1492 80.3146 12.7834C82.3037 13.1118 83.5157 14.3378 83.5157 16.1356C83.5157 17.6079 82.7415 18.8338 81.1091 19.7115C79.8536 20.4051 77.8645 20.8978 77.6557 20.8978V20.895ZM79.7057 10.2692C79.7057 8.8791 78.6792 8.10334 76.838 8.10334C76.5017 8.10334 75.9798 8.12316 75.4578 8.16562C75.4172 9.39156 75.3738 10.8836 75.3738 12.3531C75.9392 12.3729 76.6496 12.3729 77.2353 12.3729C78.7836 12.3729 79.7057 11.5971 79.7057 10.2692ZM80.5436 16.5037C80.5436 15.0739 79.3722 14.2755 77.3425 14.2755C76.7974 14.2755 76.0464 14.2953 75.3767 14.3151C75.3767 15.8695 75.4172 17.3814 75.4607 18.6271C76.2552 18.6894 77.1135 18.729 77.5948 18.729C79.436 18.729 80.5465 17.9108 80.5465 16.5008L80.5436 16.5037Z" fill="white"/>
<path d="M88.9988 17.6479C88.5175 19.1597 88.2043 20.2215 88.0767 20.6716H85.2091C85.1888 20.5895 85.1888 19.4061 85.2091 19.324C86.569 16.3823 88.7465 11.1501 90.6718 6.30867L93.5395 6.22656C95.4445 11.1501 97.5786 16.3823 98.9384 19.324C98.9587 19.4061 98.9587 20.5895 98.9384 20.6716H95.8823C95.7576 20.2215 95.401 19.1399 94.8994 17.628C94.2702 17.5884 93.7077 17.5884 92.8291 17.5884C91.0082 17.5884 89.9005 17.6082 88.9988 17.6507V17.6479ZM94.1455 15.4395C93.5163 13.5793 92.7218 11.3313 91.8432 8.85963C91.0285 11.354 90.2949 13.5793 89.6889 15.4593H91.0285C92.2637 15.4593 93.3104 15.4593 94.1455 15.4395Z" fill="white"/>
<path d="M109.215 14.9693C110.763 16.6851 112.395 18.3414 113.483 19.321C113.503 19.4031 113.503 20.5865 113.483 20.6686L110.406 20.7309C109.652 19.6069 108.168 17.727 106.556 15.847C106.138 15.847 105.573 15.8272 104.923 15.7847C104.943 17.7666 105.007 19.6069 105.112 20.6686H101.806C101.931 19.2587 102.015 16.5605 102.015 13.9671V12.9874C102.015 10.3317 101.931 7.65336 101.806 6.26321H102.287C103.627 6.26321 107.101 5.99707 107.31 5.99707C110.427 5.99707 112.5 7.79492 112.5 10.4931C112.5 12.2088 111.682 13.5792 110.113 14.4993C109.821 14.6635 109.528 14.8278 109.215 14.9693ZM109.423 10.9659C109.423 9.23037 108.377 8.18563 106.599 8.18563C106.242 8.18563 105.616 8.22527 104.967 8.26774C104.926 9.53331 104.903 11.1273 104.903 12.9676V13.7038C105.552 13.7434 106.158 13.766 106.515 13.766C108.336 13.766 109.423 12.7241 109.423 10.9659Z" fill="white"/>
</g>
<g clip-path="url(#clip1_179_216)">
<path d="M0.499887 19.3039C0.499887 17.3152 0.52698 15.3244 0.660364 13.3356C1.0626 7.74375 5.26836 10.4059 5.26836 4.78469C5.26836 3.54878 5.0266 2.33797 5.0266 1.10207C5.0266 0.807207 5.0537 0 5.50803 0C6.50008 0 6.57927 3.87083 6.57927 4.67803C6.57927 10.9433 2.23805 9.06121 1.97128 13.3356C1.83789 15.1362 1.8108 16.966 1.8108 18.7937C1.8108 20.6214 1.83789 22.424 1.83789 24.2517V24.3584C1.83789 24.8415 1.8108 25.9979 1.24809 25.9979C0.604093 25.9979 0.579084 24.3584 0.55199 23.982C0.524896 22.4219 0.497803 20.864 0.497803 19.3039H0.499887ZM0.847935 8.6576C0.687458 8.57605 0.660364 8.41502 0.660364 8.28119C0.660364 7.74375 1.00841 7.25859 1.19598 6.8027C1.46484 6.1837 1.57113 4.9478 1.57113 4.27652C1.57113 3.28111 1.22308 2.31288 1.22308 1.31955C1.22308 0.997507 1.30436 0.460066 1.7316 0.460066C2.59026 0.460066 2.88412 3.41704 2.88412 4.11759C2.88412 5.19247 2.45479 8.68897 1.00841 8.68897C0.954226 8.68897 0.902123 8.66179 0.847935 8.66179V8.6576ZM3.95745 18.3378C3.95745 16.7506 4.09083 14.3311 4.65354 12.8254C4.78693 12.4762 5.37673 11.0771 5.88734 11.0771C6.2083 11.0771 6.36878 11.4264 6.36878 11.7233C6.36878 12.2879 6.12702 12.7982 5.93945 13.3356C5.40383 14.8957 5.27044 17.0998 5.27044 18.7393C5.27044 20.2722 5.40383 21.7778 5.61849 23.2835C5.67268 23.6871 5.72687 24.0907 5.72687 24.4943C5.72687 24.7641 5.69977 25.22 5.32463 25.22C4.06582 25.22 3.95745 19.4399 3.95745 18.3378ZM17.5147 5.86166C20.4345 6.23808 22.3644 6.23808 22.3644 9.68021C22.3644 10.5941 22.4457 11.5079 22.4457 12.3967C22.4457 15.6234 22.2852 18.8502 22.0164 22.0497C21.8559 23.959 20.9722 25.1154 19.0423 25.3308C17.623 25.4918 16.1746 25.5734 14.7282 25.5734C13.5757 25.5734 12.4232 25.519 11.2706 25.3852C8.2424 25.036 7.94854 22.1041 7.94854 19.4963C7.94854 18.9045 7.97564 18.3127 7.97564 17.8025C7.97564 15.1132 8.00273 12.4511 8.05692 9.76385C8.08401 8.15153 8.56544 6.83407 10.2265 6.32172C10.5745 6.21507 10.9226 6.18789 11.2706 6.13352C11.7792 6.02686 12.2898 5.91812 12.7983 5.83866V2.20413C11.7 2.20413 10.5745 2.31079 9.44911 2.31079C9.12816 2.31079 8.16321 2.31079 8.16321 1.80053C8.16321 1.12925 9.69087 1.02051 10.1202 0.993324C11.8354 0.859487 13.5507 0.805115 15.2659 0.805115C16.9811 0.805115 18.8027 0.859487 20.545 0.993324C20.9743 1.02051 22.4999 1.12716 22.4999 1.80053C22.4999 2.31079 21.5349 2.31079 21.214 2.31079C19.9823 2.31079 18.7485 2.14976 17.5168 2.14976V5.85957L17.5147 5.86166ZM11.7812 14.1428C12.7983 13.7664 12.8796 11.4807 12.8796 10.1905V9.59865C12.8796 8.79144 12.8525 8.01142 12.7983 7.20631C11.0831 7.4217 9.34282 7.36733 9.34282 9.57146C9.34282 10.8346 9.15525 12.0997 9.15525 13.39C9.15525 13.7664 9.18234 14.1428 9.20944 14.4921C9.93263 14.4377 11.1393 14.3854 11.7812 14.1428ZM14.2739 7.20631C14.2739 8.98174 14.2739 10.8095 14.0592 12.5828C13.8716 14.1951 13.0942 15.109 11.5145 15.4603C10.7913 15.5941 10.041 15.7301 9.31781 15.8095C9.26362 16.5624 9.26362 17.288 9.26362 18.0409C9.26362 19.3039 9.29072 20.6214 9.47829 21.8866C9.63877 23.0702 10.1744 23.9025 11.4332 24.0635C12.5857 24.2517 13.7903 24.2789 14.97 24.2789C16.2559 24.2789 17.6772 24.2789 18.9631 24.0364C20.1157 23.8481 20.5971 22.8527 20.7055 21.7778C20.9472 19.7891 20.9743 17.7439 20.9743 15.728C20.3053 15.6736 19.6342 15.567 18.9652 15.431C17.2771 15.0818 16.6873 14.1408 16.4205 12.5263C16.1787 11.0207 16.0725 9.59656 16.0725 8.09089V7.20421H14.278L14.2739 7.20631ZM18.265 20.0045C17.0061 20.0045 15.7473 19.8435 14.4864 19.8435C13.6549 19.8435 12.8254 19.925 11.9938 19.925C11.6458 19.925 10.7079 19.925 10.7079 19.4148C10.7079 18.5804 13.2005 18.5281 14.1905 18.5281H14.8074C16.0933 18.5281 19.5509 18.5825 19.5509 19.4963C19.5509 20.0066 18.613 20.0066 18.265 20.0066V20.0045ZM16.0683 2.15185H14.2739V5.83447H16.0683V2.15185ZM21.1598 12.0182C21.1598 11.0771 21.1056 10.1633 21.1056 9.22223C21.1056 7.20631 18.9881 7.34014 17.5147 7.20631C17.4605 7.93195 17.4334 8.6576 17.4334 9.38325C17.4334 10.6463 17.4605 13.39 18.6401 14.1157C19.4446 14.2495 20.2219 14.3582 21.0243 14.4105C21.1577 13.6305 21.1577 12.7982 21.1577 12.0182H21.1598Z" fill="white"/>
</g>
<defs>
<clipPath id="clip0_179_216">
<rect width="84" height="15" fill="white" transform="translate(29.5 6)"/>
</clipPath>
<clipPath id="clip1_179_216">
<rect width="22" height="26" fill="white" transform="translate(0.5)"/>
</clipPath>
</defs>
</svg>
