<svg width="101" height="20" viewBox="0 0 101 20" fill="none" xmlns="http://www.w3.org/2000/svg">
<g clip-path="url(#clip0_81_225)">
<path d="M4.83552 18.8901C3.36503 18.8901 1.64601 18.4476 0.5 17.7839L1.59769 14.8125C1.69779 14.7887 2.51933 14.7887 2.61943 14.8125L5.21177 16.2114C6.33362 16.065 7.10683 15.129 7.10683 13.7063V9.38359C7.10683 6.19092 7.00673 2.97102 6.83414 1.2998H10.821C10.6726 2.99485 10.5725 6.23857 10.5725 9.35636V12.869C10.5725 15.0303 9.85105 16.579 8.3564 17.5354C7.13445 18.274 5.09096 18.8867 4.84242 18.8867L4.83552 18.8901Z" fill="white"/>
<path d="M15.6226 18.6217C15.771 16.9267 15.8711 13.683 15.8711 10.5652V9.38749C15.8711 6.19482 15.771 2.97493 15.6226 1.30371H19.6336C19.4852 2.99875 19.3851 6.24248 19.3851 9.36026V10.5379C19.3851 13.7306 19.4852 16.9505 19.6336 18.6217H15.6226Z" fill="white"/>
<path d="M30.7694 19.016C26.9309 19.016 24.6665 17.1236 24.6665 13.9548C24.6665 12.5558 24.7424 11.9159 24.7424 10.5647V9.38699C24.7424 6.19432 24.6423 2.97442 24.4939 1.30321H28.5049C28.3565 2.99825 28.2564 6.24197 28.2564 9.35976V12.3822C28.2564 14.9861 29.2782 16.1638 31.5219 16.1638C32.8922 16.1638 34.2626 15.6736 35.6572 14.6661V9.38359C35.6572 6.19092 35.5571 2.97102 35.4086 1.2998H39.4197C39.2713 2.99485 39.1711 6.23857 39.1711 9.35636V10.534C39.1711 13.7267 39.2713 16.9466 39.4197 18.6178H36.3061C36.206 18.2502 36.0817 17.5354 35.9575 16.7015C34.8115 17.5116 33.5412 18.2979 32.5678 18.8152C32.1432 18.9378 31.4701 19.0126 30.7728 19.0126L30.7694 19.016Z" fill="white"/>
<path d="M57.8282 18.8899C56.5579 18.8899 53.4444 18.621 51.998 18.621H51.501C51.6494 16.9259 51.7495 13.6822 51.7495 10.5644V9.38674C51.7495 6.19407 51.6494 2.97417 51.501 1.30296H51.998C54.0899 1.30296 57.1068 1.00684 57.3795 1.00684C61.1903 1.00684 63.7585 2.7257 63.7585 5.40441C63.7585 7.07563 62.7367 8.37584 60.9936 9.13827C63.3615 9.5331 64.8044 11.0069 64.8044 13.1682C64.8044 14.9382 63.8828 16.412 61.9394 17.4671C60.4447 18.301 58.0767 18.8933 57.8282 18.8933V18.8899ZM60.2687 6.11579C60.2687 4.44457 59.0467 3.51196 56.8548 3.51196C56.4544 3.51196 55.833 3.53578 55.2117 3.58684C55.1634 5.06064 55.1116 6.85439 55.1116 8.62091C55.7847 8.64473 56.6304 8.64473 57.3277 8.64473C59.171 8.64473 60.2687 7.71212 60.2687 6.11579ZM61.2663 13.6107C61.2663 11.8919 59.8717 10.932 57.4554 10.932C56.8065 10.932 55.9124 10.9558 55.1151 10.9797C55.1151 12.8483 55.1634 14.6659 55.2152 16.1635C56.161 16.2384 57.1827 16.286 57.7557 16.286C59.9476 16.286 61.2697 15.3024 61.2697 13.6073L61.2663 13.6107Z" fill="white"/>
<path d="M71.3319 14.9864C70.7589 16.8039 70.3861 18.0803 70.2342 18.6215H66.8204C66.7962 18.5228 66.7962 17.1001 66.8204 17.0014C68.4393 13.4649 71.0316 7.17489 73.3236 1.35457L76.7375 1.25586C79.0054 7.17489 81.5459 13.4649 83.1649 17.0014C83.189 17.1001 83.189 18.5228 83.1649 18.6215H79.5266C79.3782 18.0803 78.9536 16.7801 78.3564 14.9625C77.6074 14.9149 76.9377 14.9149 75.8918 14.9149C73.7241 14.9149 72.4055 14.9387 71.3319 14.9898V14.9864ZM77.459 12.3315C76.7099 10.0953 75.7641 7.39273 74.7182 4.4213C73.7482 7.41996 72.8749 10.0953 72.1535 12.3553H73.7482C75.2187 12.3553 76.4648 12.3553 77.459 12.3315Z" fill="white"/>
<path d="M95.3981 11.7668C97.2414 13.8294 99.1848 15.8206 100.479 16.9983C100.503 17.097 100.503 18.5197 100.479 18.6184L96.8168 18.6933C95.9193 17.342 94.152 15.082 92.2327 12.8219C91.7357 12.8219 91.0626 12.7981 90.2893 12.7471C90.3135 15.1296 90.3895 17.342 90.5137 18.6184H86.5786C86.727 16.9234 86.8271 13.6797 86.8271 10.5619V9.3842C86.8271 6.19153 86.727 2.97163 86.5786 1.30042H87.1516C88.7464 1.30042 92.8817 0.980469 93.1302 0.980469C96.841 0.980469 99.309 3.14182 99.309 6.38554C99.309 8.44818 98.3356 10.0956 96.4682 11.2018C96.1195 11.3992 95.7709 11.5966 95.3981 11.7668ZM95.6466 6.95396C95.6466 4.86749 94.4005 3.61153 92.2845 3.61153C91.8599 3.61153 91.1143 3.65918 90.3411 3.71023C90.2928 5.23169 90.2652 7.14797 90.2652 9.36037V10.2453C91.0384 10.293 91.7598 10.3202 92.1844 10.3202C94.3522 10.3202 95.6466 9.06765 95.6466 6.95396Z" fill="white"/>
</g>
<defs>
<clipPath id="clip0_81_225">
<rect width="100" height="18.0328" fill="white" transform="translate(0.5 0.983398)"/>
</clipPath>
</defs>
</svg>
